<svg width="20" height="20" viewBox="0 0 20 20" fill="none" xmlns="http://www.w3.org/2000/svg">
<path d="M14.375 2.5V8.75M17.5 5.625H11.25" stroke="#414651" stroke-width="1.5" stroke-linecap="round" stroke-linejoin="round"/>
<path d="M7.91667 2.5H3.33333C2.8731 2.5 2.5 2.8731 2.5 3.33333V7.91667C2.5 8.37692 2.8731 8.75 3.33333 8.75H7.91667C8.37692 8.75 8.75 8.37692 8.75 7.91667V3.33333C8.75 2.8731 8.37692 2.5 7.91667 2.5Z" stroke="#414651" stroke-width="1.5" stroke-linecap="round" stroke-linejoin="round"/>
<path d="M7.91667 11.25H3.33333C2.8731 11.25 2.5 11.6231 2.5 12.0833V16.6667C2.5 17.1269 2.8731 17.5 3.33333 17.5H7.91667C8.37692 17.5 8.75 17.1269 8.75 16.6667V12.0833C8.75 11.6231 8.37692 11.25 7.91667 11.25Z" stroke="#414651" stroke-width="1.5" stroke-linecap="round" stroke-linejoin="round"/>
<path d="M16.6667 11.25H12.0833C11.6231 11.25 11.25 11.6231 11.25 12.0833V16.6667C11.25 17.1269 11.6231 17.5 12.0833 17.5H16.6667C17.1269 17.5 17.5 17.1269 17.5 16.6667V12.0833C17.5 11.6231 17.1269 11.25 16.6667 11.25Z" stroke="#414651" stroke-width="1.5" stroke-linecap="round" stroke-linejoin="round"/>
</svg>
