<svg width="20" height="20" viewBox="0 0 20 20" fill="none" xmlns="http://www.w3.org/2000/svg">
<path d="M16.25 3.75004L17.9167 2.08337" stroke="#414651" stroke-width="1.5" stroke-linecap="round" stroke-linejoin="round"/>
<path d="M2.08331 17.9167L3.74998 16.25" stroke="#414651" stroke-width="1.5" stroke-linecap="round" stroke-linejoin="round"/>
<path d="M9.82744 13.5774L6.00595 9.7559C5.6805 9.43049 5.15287 9.43049 4.82743 9.7559L2.91669 11.6667V14.3097C2.91669 14.7517 3.09228 15.1756 3.40485 15.4882L4.0952 16.1785C4.40776 16.4911 4.83168 16.6667 5.27371 16.6667H7.91669L9.82744 14.7559C10.1529 14.4305 10.1529 13.9028 9.82744 13.5774Z" stroke="#414651" stroke-width="1.5" stroke-linecap="round" stroke-linejoin="round"/>
<path d="M10.1726 5.24412C9.84717 5.56956 9.84717 6.09719 10.1726 6.42263L13.9941 10.2441C14.3195 10.5695 14.8472 10.5695 15.1726 10.2441L17.0833 8.33337V5.6904C17.0833 5.24837 16.9078 4.82445 16.5952 4.51188L15.9048 3.82153C15.5923 3.50897 15.1683 3.33337 14.7263 3.33337H12.0833L10.1726 5.24412Z" stroke="#414651" stroke-width="1.5" stroke-linecap="round" stroke-linejoin="round"/>
<path d="M7.08331 10.4167L8.74998 8.75M9.58331 12.9167L11.25 11.25" stroke="#414651" stroke-width="1.5" stroke-linecap="round" stroke-linejoin="round"/>
</svg>
