<svg width="20" height="20" viewBox="0 0 20 20" fill="none" xmlns="http://www.w3.org/2000/svg">
<path d="M12.0789 8.33329C12.78 7.86711 13.4023 7.11905 13.789 6.18873C14.5873 4.26798 14.0786 2.29766 12.653 1.78791C11.2272 1.27815 9.42423 2.42199 8.62598 4.34275C8.49248 4.66385 8.39556 4.98634 8.33331 5.30315" stroke="#414651" stroke-width="1.5" stroke-linecap="round" stroke-linejoin="round"/>
<path d="M8.33331 16.6667V8.8052C8.33331 8.51245 8.4869 8.24122 8.7379 8.09062L11.6666 6.33336M8.33331 16.6667V17.5C8.33331 17.9603 8.7064 18.3334 9.16665 18.3334H15.8333C16.2936 18.3334 16.6666 17.9603 16.6666 17.5V8.8052C16.6666 8.51245 16.5131 8.24122 16.2621 8.09062L12.9287 6.09062C12.6648 5.93227 12.3351 5.93227 12.0712 6.09062L11.6666 6.33336M8.33331 16.6667L4.23285 15.9833C3.7497 15.9028 3.43987 15.4249 3.56351 14.9509L5.71156 6.71674C5.78688 6.42804 6.0108 6.20163 6.29865 6.12312L9.93256 5.13205C10.2304 5.05083 10.5486 5.14087 10.7598 5.36606L11.6666 6.33336" stroke="#414651" stroke-width="1.5" stroke-linecap="round" stroke-linejoin="round"/>
</svg>
