<svg width="20" height="20" viewBox="0 0 20 20" fill="none" xmlns="http://www.w3.org/2000/svg">
<path d="M10.8334 5.83333C10.8334 7.67428 9.34094 9.16667 7.50002 9.16667C5.65907 9.16667 4.16669 7.67428 4.16669 5.83333C4.16669 3.99238 5.65907 2.5 7.50002 2.5C9.34094 2.5 10.8334 3.99238 10.8334 5.83333Z" stroke="#414651" stroke-width="1.5" stroke-linecap="round" stroke-linejoin="round"/>
<path d="M12.5 9.16667C14.3409 9.16667 15.8333 7.67428 15.8333 5.83333C15.8333 3.99238 14.3409 2.5 12.5 2.5" stroke="#414651" stroke-width="1.5" stroke-linecap="round" stroke-linejoin="round"/>
<path d="M13.3334 15.8333C13.3334 13.5321 11.4679 11.6666 9.16669 11.6666H5.83335C3.53217 11.6666 1.66669 13.5321 1.66669 15.8333V17.5H13.3334V15.8333Z" stroke="#414651" stroke-width="1.5" stroke-linecap="round" stroke-linejoin="round"/>
<path d="M15.8334 17.5H18.3334V15.8333C18.3334 13.5321 16.4679 11.6666 14.1667 11.6666" stroke="#414651" stroke-width="1.5" stroke-linecap="round" stroke-linejoin="round"/>
</svg>
