<svg width="16" height="16" viewBox="0 0 16 16" fill="none" xmlns="http://www.w3.org/2000/svg">
    <path d="M13 2.99984L14.3333 1.6665" stroke="#A4A7AE" stroke-width="1.25" stroke-linecap="round" stroke-linejoin="round"/>
    <path d="M1.6665 14.3333L2.99984 13" stroke="#A4A7AE" stroke-width="1.25" stroke-linecap="round" stroke-linejoin="round"/>
    <path d="M7.8621 10.8618L4.8049 7.80462C4.54455 7.54429 4.12244 7.54429 3.86209 7.80462L2.3335 9.33322V11.4476C2.3335 11.8012 2.47397 12.1404 2.72402 12.3904L3.2763 12.9427C3.52636 13.1928 3.86549 13.3332 4.21912 13.3332H6.3335L7.8621 11.8046C8.12243 11.5443 8.12243 11.1222 7.8621 10.8618Z" stroke="#A4A7AE" stroke-width="1.25" stroke-linecap="round" stroke-linejoin="round"/>
    <path d="M8.13812 4.1951C7.87779 4.45545 7.87779 4.87756 8.13812 5.13791L11.1953 8.1951C11.4557 8.45544 11.8778 8.45544 12.1381 8.1951L13.6667 6.6665V4.55212C13.6667 4.1985 13.5263 3.85936 13.2762 3.60931L12.7239 3.05703C12.4739 2.80698 12.1347 2.6665 11.7811 2.6665H9.66672L8.13812 4.1951Z" stroke="#A4A7AE" stroke-width="1.25" stroke-linecap="round" stroke-linejoin="round"/>
    <path d="M5.6665 8.33333L6.99984 7M7.6665 10.3333L8.99984 9" stroke="#A4A7AE" stroke-width="1.25" stroke-linecap="round" stroke-linejoin="round"/>
</svg>
