<svg width="16" height="16" viewBox="0 0 16 16" fill="none" xmlns="http://www.w3.org/2000/svg">
    <path d="M3.33317 13.3332H5.99984C6.36802 13.3332 6.6665 13.0347 6.6665 12.6665V3.33317C6.6665 2.96498 6.36802 2.6665 5.99984 2.6665H3.33317C2.96498 2.6665 2.6665 2.96498 2.6665 3.33317V12.6665C2.6665 13.0347 2.96498 13.3332 3.33317 13.3332Z" stroke="#A4A7AE" stroke-width="1.25" stroke-linejoin="round"/>
    <path d="M10.0002 13.3332H12.6668C13.035 13.3332 13.3335 13.0347 13.3335 12.6665V3.33317C13.3335 2.96498 13.035 2.6665 12.6668 2.6665H10.0002C9.63196 2.6665 9.3335 2.96498 9.3335 3.33317V12.6665C9.3335 13.0347 9.63196 13.3332 10.0002 13.3332Z" stroke="#A4A7AE" stroke-width="1.25" stroke-linejoin="round"/>
</svg>
