<svg width="16" height="16" viewBox="0 0 16 16" fill="none" xmlns="http://www.w3.org/2000/svg">
    <path d="M1.33325 7.99967C1.33325 11.6815 4.31802 14.6663 7.99993 14.6663C11.6818 14.6663 14.6666 11.6815 14.6666 7.99967C14.6666 4.31777 11.6818 1.33301 7.99993 1.33301C5.26616 1.33301 2.91672 2.97847 1.88797 5.33301M1.33325 2.99967L1.66659 5.66634L4.33325 4.99967" stroke="#84CAFF" stroke-width="1.25" stroke-linecap="round" stroke-linejoin="round"/>
    <path d="M9.81775 6.70707C9.75175 6.19863 9.16908 5.37715 8.12135 5.37713C6.90395 5.37711 6.39172 6.05265 6.28777 6.39041C6.12562 6.84221 6.15805 7.77107 7.58495 7.87234C9.36868 7.99901 10.0833 8.20994 9.99235 9.30367C9.90148 10.3973 8.90715 10.6337 8.12135 10.6083C7.33555 10.583 6.04989 10.2213 6 9.24854M7.99661 4.33301V5.37955M7.99661 10.6017V11.6663" stroke="#84CAFF" stroke-width="1.25" stroke-linecap="round"/>
</svg>
