<svg width="20" height="20" viewBox="0 0 20 20" fill="none" xmlns="http://www.w3.org/2000/svg">
<path d="M16.25 3.74967L17.9167 2.08301" stroke="#A4A7AE" stroke-width="1.5" stroke-linecap="round" stroke-linejoin="round"/>
<path d="M2.08331 17.9167L3.74998 16.25" stroke="#A4A7AE" stroke-width="1.5" stroke-linecap="round" stroke-linejoin="round"/>
<path d="M9.82744 13.5773L6.00595 9.75578C5.6805 9.43036 5.15287 9.43036 4.82743 9.75578L2.91669 11.6665V14.3095C2.91669 14.7515 3.09228 15.1754 3.40485 15.488L4.0952 16.1784C4.40776 16.4909 4.83168 16.6665 5.27371 16.6665H7.91669L9.82744 14.7558C10.1529 14.4304 10.1529 13.9027 9.82744 13.5773Z" stroke="#A4A7AE" stroke-width="1.5" stroke-linecap="round" stroke-linejoin="round"/>
<path d="M10.1726 5.24375C9.84717 5.56919 9.84717 6.09682 10.1726 6.42227L13.9941 10.2438C14.3195 10.5692 14.8472 10.5692 15.1726 10.2438L17.0833 8.33301V5.69003C17.0833 5.248 16.9078 4.82408 16.5952 4.51152L15.9048 3.82117C15.5923 3.5086 15.1683 3.33301 14.7263 3.33301H12.0833L10.1726 5.24375Z" stroke="#A4A7AE" stroke-width="1.5" stroke-linecap="round" stroke-linejoin="round"/>
<path d="M7.08331 10.4167L8.74998 8.75M9.58331 12.9167L11.25 11.25" stroke="#A4A7AE" stroke-width="1.5" stroke-linecap="round" stroke-linejoin="round"/>
</svg>
