<svg width="20" height="20" viewBox="0 0 20 20" fill="none" xmlns="http://www.w3.org/2000/svg">
    <path d="M12.0789 8.33366C12.78 7.86747 13.4023 7.11942 13.789 6.1891C14.5873 4.26834 14.0786 2.29803 12.653 1.78828C11.2272 1.27852 9.42423 2.42236 8.62598 4.34312C8.49248 4.66422 8.39556 4.98671 8.33331 5.30352" stroke="#A4A7AE" stroke-width="1.5" stroke-linecap="round" stroke-linejoin="round"/>
    <path d="M8.33331 16.6666V8.80508C8.33331 8.51233 8.4869 8.24109 8.7379 8.09049L11.6666 6.33324M8.33331 16.6666V17.4999C8.33331 17.9602 8.7064 18.3332 9.16665 18.3332H15.8333C16.2936 18.3332 16.6666 17.9602 16.6666 17.4999V8.80508C16.6666 8.51233 16.5131 8.24109 16.2621 8.09049L12.9287 6.09049C12.6648 5.93215 12.3351 5.93215 12.0712 6.09049L11.6666 6.33324M8.33331 16.6666L4.23285 15.9832C3.7497 15.9027 3.43987 15.4247 3.56351 14.9508L5.71156 6.71662C5.78688 6.42792 6.0108 6.20151 6.29865 6.123L9.93256 5.13193C10.2304 5.05071 10.5486 5.14075 10.7598 5.36594L11.6666 6.33324" stroke="#A4A7AE" stroke-width="1.5" stroke-linecap="round" stroke-linejoin="round"/>
</svg>
