<svg width="20" height="20" viewBox="0 0 20 20" fill="none" xmlns="http://www.w3.org/2000/svg">
<path d="M10 6.24967C10 7.86051 8.69419 9.16634 7.08335 9.16634C5.47252 9.16634 4.16669 7.86051 4.16669 6.24967C4.16669 4.63884 5.47252 3.33301 7.08335 3.33301C8.69419 3.33301 10 4.63884 10 6.24967Z" stroke="#A4A7AE" stroke-width="1.5" stroke-linecap="round" stroke-linejoin="round"/>
<path d="M11.25 9.16634C12.8608 9.16634 14.1667 7.86051 14.1667 6.24967C14.1667 4.63884 12.8608 3.33301 11.25 3.33301" stroke="#A4A7AE" stroke-width="1.5" stroke-linecap="round" stroke-linejoin="round"/>
<path d="M10.8334 16.667H1.66669V15.0003C1.66669 13.1594 3.15907 11.667 5.00002 11.667H9.16669C9.77385 11.667 10.3431 11.8293 10.8334 12.1129" stroke="#A4A7AE" stroke-width="1.5" stroke-linecap="round" stroke-linejoin="round"/>
<path d="M15.8333 11.667V16.667M18.3333 14.167H13.3333" stroke="#A4A7AE" stroke-width="1.5" stroke-linecap="round" stroke-linejoin="round"/>
</svg>
