<svg width="20" height="20" viewBox="0 0 20 20" fill="none" xmlns="http://www.w3.org/2000/svg">
    <path d="M10.0001 10.8335C10.4603 10.8335 10.8334 10.4604 10.8334 10.0002C10.8334 9.53993 10.4603 9.16683 10.0001 9.16683C9.53984 9.16683 9.16675 9.53993 9.16675 10.0002C9.16675 10.4604 9.53984 10.8335 10.0001 10.8335Z" stroke="#A4A7AE" stroke-width="1.66667" stroke-linecap="round" stroke-linejoin="round"/>
    <path d="M10.0001 5.00016C10.4603 5.00016 10.8334 4.62707 10.8334 4.16683C10.8334 3.70659 10.4603 3.3335 10.0001 3.3335C9.53984 3.3335 9.16675 3.70659 9.16675 4.16683C9.16675 4.62707 9.53984 5.00016 10.0001 5.00016Z" stroke="#A4A7AE" stroke-width="1.66667" stroke-linecap="round" stroke-linejoin="round"/>
    <path d="M10.0001 16.6668C10.4603 16.6668 10.8334 16.2937 10.8334 15.8335C10.8334 15.3733 10.4603 15.0002 10.0001 15.0002C9.53984 15.0002 9.16675 15.3733 9.16675 15.8335C9.16675 16.2937 9.53984 16.6668 10.0001 16.6668Z" stroke="#A4A7AE" stroke-width="1.66667" stroke-linecap="round" stroke-linejoin="round"/>
</svg>