<svg width="16" height="16" viewBox="0 0 16 16" fill="none" xmlns="http://www.w3.org/2000/svg">
<path d="M11.1278 6.53511L12.3223 5.34064C12.7815 4.88142 12.7815 4.13689 12.3223 3.67767C11.8631 3.21845 11.1185 3.21845 10.6593 3.67767L9.4648 4.87214M11.1278 6.53511L4.00739 13.6555C3.54817 14.1147 2.80364 14.1147 2.34442 13.6555C1.8852 13.1963 1.8852 12.4517 2.34442 11.9925L9.4648 4.87214M11.1278 6.53511L9.4648 4.87214" stroke="#84CAFF" stroke-width="1.25" stroke-linejoin="round"/>
<path d="M11.9825 9.3476C11.9863 9.32847 12.0137 9.32847 12.0176 9.3476C12.2202 10.3387 12.9946 11.1131 13.9857 11.3157C14.0048 11.3196 14.0048 11.3469 13.9857 11.3508C12.9946 11.5534 12.2202 12.3279 12.0176 13.3189C12.0137 13.3381 11.9863 13.3381 11.9825 13.3189C11.7799 12.3279 11.0054 11.5534 10.0143 11.3508C9.99522 11.3469 9.99522 11.3196 10.0143 11.3157C11.0054 11.1131 11.7799 10.3387 11.9825 9.3476Z" stroke="#84CAFF" stroke-width="1.5" stroke-linejoin="round"/>
<path d="M5.41375 2.20644C5.47002 1.93119 5.86331 1.93119 5.91958 2.20644C6.04384 2.81439 6.51894 3.28949 7.12687 3.41375C7.40213 3.47002 7.40213 3.86331 7.12687 3.91958C6.51894 4.04384 6.04384 4.51894 5.91958 5.12688C5.86331 5.40214 5.47002 5.40214 5.41375 5.12688C5.28949 4.51894 4.81439 4.04384 4.20645 3.91958C3.93119 3.86331 3.93119 3.47002 4.20645 3.41375C4.81439 3.28949 5.28949 2.81439 5.41375 2.20644Z" fill="#84CAFF"/>
</svg>