<svg width="138" height="36" viewBox="0 0 138 36" fill="none" xmlns="http://www.w3.org/2000/svg">
<path d="M8.96891 13.6363L17.1663 16.2316L19.867 20.7179L7.22926 20.294L5.87472 17.7276C4.70442 15.5102 6.6717 12.9089 8.96891 13.6363Z" fill="url(#paint0_linear_5656_117635)"/>
<path d="M2.73109 18.8862L23.0656 19.4261L31.0472 32.6526C31.9039 34.0722 30.9562 35.9453 29.3786 35.9506L14.6421 36C12.8282 36.0061 11.0908 35.2177 9.83259 33.8178L0.749744 23.712C-0.899153 21.8774 0.354861 18.8231 2.73109 18.8862Z" fill="url(#paint1_linear_5656_117635)"/>
<path d="M20.5179 0.919922L15.7246 7.75567L23.189 11.3725L24.8913 4.89582L20.5179 0.919922Z" fill="url(#paint2_linear_5656_117635)"/>
<path d="M27.5141 34.8764L15.4574 13.4093C14.4372 11.5929 14.565 9.35199 15.785 7.66255C16.4888 6.68792 17.8875 6.54241 18.778 7.35118L34.1718 21.3321C36.1567 23.1348 36.5779 26.0884 35.1757 28.371L31.1361 34.9469C30.2983 36.3107 28.2978 36.2717 27.5141 34.8764Z" fill="url(#paint3_linear_5656_117635)"/>
<path d="M32.0753 11.0799L21.0977 3.84213C19.1972 2.5891 20.3796 -0.360792 22.623 0.0364992L27.8828 0.967948C29.1553 1.19329 30.1995 2.09954 30.5986 3.32489L32.9165 10.4422C33.0801 10.9445 32.5171 11.3713 32.0753 11.0799Z" fill="url(#paint4_linear_5656_117635)"/>
<path d="M69.3857 29.5787C68.2643 29.5787 67.3552 28.684 67.3552 27.5803V14.5758C67.3552 13.4721 68.2643 12.5774 69.3857 12.5774C70.5072 12.5774 71.4163 13.4721 71.4163 14.5758V27.5803C71.4163 28.684 70.5072 29.5787 69.3857 29.5787ZM69.402 9.77566C68.6439 9.77566 68.0158 9.54218 67.5176 9.07523C67.0411 8.60827 66.8028 8.04581 66.8028 7.38783C66.8028 6.70862 67.0411 6.14616 67.5176 5.70043C68.0158 5.23348 68.6439 5 69.402 5C70.1601 5 70.7773 5.22286 71.2539 5.66859C71.752 6.0931 72.0011 6.63434 72.0011 7.29231C72.0011 7.99274 71.7629 8.58705 71.2863 9.07523C70.8098 9.54218 70.1817 9.77566 69.402 9.77566Z" fill="#293056"/>
<path d="M77.4776 29.5787C76.3561 29.5787 75.447 28.684 75.447 27.5803V7.9536C75.447 6.84988 76.3561 5.95513 77.4776 5.95513C78.599 5.95513 79.5081 6.84988 79.5081 7.9536V27.5803C79.5081 28.684 78.599 29.5787 77.4776 29.5787Z" fill="#293056"/>
<path d="M85.5694 29.5787C84.4479 29.5787 83.5388 28.684 83.5388 27.5803V7.9536C83.5388 6.84987 84.4479 5.95513 85.5694 5.95513C86.6908 5.95513 87.6 6.84988 87.6 7.9536V27.5803C87.6 28.684 86.6908 29.5787 85.5694 29.5787Z" fill="#293056"/>
<path d="M119.786 29.5787C118.664 29.5787 117.755 28.684 117.755 27.5803V14.5758C117.755 13.4721 118.664 12.5774 119.786 12.5774C120.907 12.5774 121.816 13.4721 121.816 14.5758V27.5803C121.816 28.684 120.907 29.5787 119.786 29.5787ZM119.802 9.77566C119.044 9.77566 118.416 9.54218 117.918 9.07523C117.441 8.60827 117.203 8.04581 117.203 7.38783C117.203 6.70862 117.441 6.14616 117.918 5.70043C118.416 5.23348 119.044 5 119.802 5C120.56 5 121.177 5.22286 121.654 5.66859C122.152 6.0931 122.401 6.63434 122.401 7.29231C122.401 7.99274 122.163 8.58705 121.686 9.07523C121.21 9.54218 120.582 9.77566 119.802 9.77566Z" fill="#293056"/>
<path d="M127.878 29.5787C126.756 29.5787 125.847 28.684 125.847 27.5803V7.9536C125.847 6.84987 126.756 5.95513 127.878 5.95513C128.999 5.95513 129.908 6.84988 129.908 7.9536V27.5803C129.908 28.684 128.999 29.5787 127.878 29.5787Z" fill="#293056"/>
<path d="M135.969 29.5787C134.848 29.5787 133.939 28.684 133.939 27.5803V7.9536C133.939 6.84987 134.848 5.95513 135.969 5.95513C137.091 5.95513 138 6.84988 138 7.9536V27.5803C138 28.684 137.091 29.5787 135.969 29.5787Z" fill="#293056"/>
<path d="M59.977 13.0294C60.2978 12.7387 60.7179 12.5774 61.1539 12.5774C62.702 12.5774 63.4773 14.4195 62.3826 15.4968L58.1099 19.7015L63.5453 26.4787C64.552 27.734 63.6435 29.5787 62.0187 29.5787C61.4331 29.5787 60.8787 29.319 60.5094 28.8718L55.0817 22.2982L52.0611 25.0975V27.5803C52.0611 28.684 51.152 29.5787 50.0306 29.5787C48.9091 29.5787 48 28.684 48 27.5803V7.9536C48 6.84987 48.9091 5.95513 50.0306 5.95513C51.152 5.95513 52.0611 6.84988 52.0611 7.9536V20.2027L59.977 13.0294Z" fill="#293056"/>
<path fill-rule="evenodd" clip-rule="evenodd" d="M106.399 29.8016C104.926 29.8016 103.615 29.4832 102.468 28.8465C101.774 28.4618 101.168 27.9611 100.648 27.3441V27.6762C100.648 28.7269 99.7826 29.5787 98.715 29.5787C97.6474 29.5787 96.7819 28.7269 96.7819 27.6762V7.9536C96.7819 6.84987 97.691 5.95513 98.8125 5.95513C99.9339 5.95513 100.843 6.84988 100.843 7.9536V14.6575C101.337 14.1191 101.9 13.6804 102.532 13.3415C103.702 12.7047 104.991 12.3864 106.399 12.3864C108.11 12.3864 109.615 12.7472 110.915 13.4688C112.236 14.1905 113.276 15.1987 114.034 16.4934C114.813 17.7882 115.203 19.3164 115.203 21.0781C115.203 22.8397 114.813 24.3679 114.034 25.6627C113.276 26.9574 112.236 27.9762 110.915 28.7191C109.615 29.4408 108.11 29.8016 106.399 29.8016ZM108.543 25.7582C107.785 26.1827 106.919 26.395 105.944 26.395C104.969 26.395 104.092 26.1827 103.312 25.7582C102.532 25.3337 101.915 24.7182 101.46 23.9116C101.006 23.1051 100.778 22.1605 100.778 21.0781C100.778 19.9743 101.006 19.0298 101.46 18.2445C101.915 17.4379 102.532 16.8224 103.312 16.3979C104.092 15.9734 104.969 15.7612 105.944 15.7612C106.919 15.7612 107.785 15.9734 108.543 16.3979C109.323 16.8224 109.94 17.4379 110.395 18.2445C110.85 19.0298 111.077 19.9743 111.077 21.0781C111.077 22.1605 110.85 23.1051 110.395 23.9116C109.94 24.7182 109.323 25.3337 108.543 25.7582Z" fill="#293056"/>
<defs>
<linearGradient id="paint0_linear_5656_117635" x1="6.3713" y1="14.584" x2="17.3232" y2="20.2038" gradientUnits="userSpaceOnUse">
<stop stop-color="#004EEB"/>
<stop offset="1" stop-color="#2970FF"/>
</linearGradient>
<linearGradient id="paint1_linear_5656_117635" x1="1.04487" y1="21.155" x2="29.4032" y2="32.4876" gradientUnits="userSpaceOnUse">
<stop stop-color="#2970FF"/>
<stop offset="1" stop-color="#7CD4FD"/>
</linearGradient>
<linearGradient id="paint2_linear_5656_117635" x1="19.8881" y1="9.67384" x2="23.8884" y2="4.93559" gradientUnits="userSpaceOnUse">
<stop stop-color="#A6EF67"/>
<stop offset="1" stop-color="#FDE172"/>
</linearGradient>
<linearGradient id="paint3_linear_5656_117635" x1="15.1997" y1="8.83686" x2="29.3077" y2="34.3257" gradientUnits="userSpaceOnUse">
<stop stop-color="#A6EF67"/>
<stop offset="1" stop-color="#15B79E"/>
</linearGradient>
<linearGradient id="paint4_linear_5656_117635" x1="20.833" y1="1.40851" x2="32.7401" y2="9.43028" gradientUnits="userSpaceOnUse">
<stop stop-color="#FDE172"/>
<stop offset="1" stop-color="#EAAA08"/>
</linearGradient>
</defs>
</svg>
