<svg width="16" height="16" viewBox="0 0 16 16" fill="none" xmlns="http://www.w3.org/2000/svg">
<path d="M10.3333 8.00008C10.3333 9.28875 9.28863 10.3334 7.99996 10.3334C6.71129 10.3334 5.66663 9.28875 5.66663 8.00008C5.66663 6.71141 6.71129 5.66675 7.99996 5.66675C9.28863 5.66675 10.3333 6.71141 10.3333 8.00008Z" stroke="#A4A7AE" stroke-width="1.2"/>
<path d="M6.5147 1.7891L5.99998 3.33325L4.96009 3.99096L3.25862 3.56996C2.97338 3.49939 2.67556 3.62389 2.52542 3.87648L1.61596 5.40654C1.45207 5.68227 1.50776 6.03563 1.74852 6.24757L2.94194 7.29819V8.70165L1.7489 9.75225C1.50819 9.96419 1.45253 10.3175 1.6164 10.5932L2.5259 12.1233C2.67604 12.3759 2.97386 12.5005 3.2591 12.4299L4.96058 12.0089L5.9457 12.5613L6.41594 14.1853C6.49848 14.4704 6.75952 14.6666 7.05632 14.6666H8.94418C9.24092 14.6666 9.50198 14.4704 9.58452 14.1853L10.0548 12.5613L11.0394 12.0089L12.7408 12.4299C13.0261 12.5005 13.3239 12.3759 13.474 12.1233L14.4007 10.5643C14.5568 10.3018 14.5144 9.96672 14.298 9.75125L13.0939 8.55239L13.0944 7.44745L14.2985 6.24857C14.515 6.03308 14.5573 5.69806 14.4012 5.43551L13.4745 3.87648C13.3244 3.62389 13.0266 3.49939 12.7413 3.56996L11.0398 3.99096L9.99998 3.33325L9.48525 1.7891C9.39452 1.51687 9.13978 1.33325 8.85278 1.33325H7.14718C6.86018 1.33325 6.60544 1.51687 6.5147 1.7891Z" stroke="#A4A7AE" stroke-width="1.2" stroke-linecap="round" stroke-linejoin="round"/>
</svg>
