<svg width="16" height="16" viewBox="0 0 16 16" fill="none" xmlns="http://www.w3.org/2000/svg">
    <path d="M12.6667 8.66634V5.99967L8 1.33301H3.33333C2.59695 1.33301 2 1.92996 2 2.66634V13.333C2 14.0694 2.59695 14.6663 3.33333 14.6663H6" stroke="#A4A7AE" stroke-width="1.25" stroke-linecap="round" stroke-linejoin="round"/>
    <path d="M8 1.33301V4.66634C8 5.40272 8.59693 5.99967 9.33333 5.99967H12.6667" stroke="#A4A7AE" stroke-width="1.25" stroke-linejoin="round"/>
    <path d="M10.6666 14.667C12.5075 14.667 13.9999 12.667 13.9999 12.667C13.9999 12.667 12.5075 10.667 10.6666 10.667C8.82565 10.667 7.33325 12.667 7.33325 12.667C7.33325 12.667 8.82565 14.667 10.6666 14.667Z" stroke="#A4A7AE" stroke-width="1.25" stroke-linejoin="round"/>
    <path d="M10.6614 12.667H10.6674" stroke="#A4A7AE" stroke-width="1.25" stroke-linecap="round" stroke-linejoin="round"/>
</svg>
