<svg width="20" height="20" viewBox="0 0 20 20" fill="none" xmlns="http://www.w3.org/2000/svg">
<path d="M14.5837 12.9168C14.8137 12.9168 15.0003 12.7302 15.0003 12.5002C15.0003 12.2701 14.8137 12.0835 14.5837 12.0835M14.5837 12.9168C14.3536 12.9168 14.167 12.7302 14.167 12.5002C14.167 12.2701 14.3536 12.0835 14.5837 12.0835M14.5837 12.9168V12.0835" stroke="#414651" stroke-width="1.5" stroke-linecap="round" stroke-linejoin="round"/>
<path d="M8.33333 14.9999H5.41667M5.41667 14.9999H2.5M5.41667 14.9999V12.0833M5.41667 14.9999V17.9166" stroke="#414651" stroke-width="1.5" stroke-linecap="round" stroke-linejoin="round"/>
<path d="M9.16667 17.9166H15.8333C16.7538 17.9166 17.5 17.1704 17.5 16.2499V8.74992C17.5 7.82944 16.7538 7.08325 15.8333 7.08325H2.5V11.2499" stroke="#414651" stroke-width="1.5" stroke-linecap="round" stroke-linejoin="round"/>
<path d="M12.5 7.08325V3.10288C12.5 2.53975 12.0435 2.08325 11.4804 2.08325C11.3287 2.08325 11.1789 2.11709 11.042 2.1823L3.25238 5.89164C2.79277 6.1105 2.5 6.57419 2.5 7.08325" stroke="#414651" stroke-width="1.5" stroke-linecap="round" stroke-linejoin="round"/>
</svg>
