<svg width="20" height="20" viewBox="0 0 20 20" fill="none" xmlns="http://www.w3.org/2000/svg">
<path d="M3.33301 12.5L2.89106 12.0581C2.64699 12.3021 2.64699 12.6978 2.89106 12.9419L3.33301 12.5ZM6.27495 10.4419C6.51902 10.1978 6.51902 9.80215 6.27495 9.55806C6.03087 9.31398 5.63514 9.31398 5.39106 9.55806L6.27495 10.4419ZM5.39106 15.4419C5.63514 15.686 6.03087 15.686 6.27495 15.4419C6.51902 15.1978 6.51902 14.8021 6.27495 14.5581L5.39106 15.4419ZM5.39106 9.55806L2.89106 12.0581L3.77495 12.9419L6.27495 10.4419L5.39106 9.55806ZM2.89106 12.9419L5.39106 15.4419L6.27495 14.5581L3.77495 12.0581L2.89106 12.9419Z" fill="#414651"/>
<path d="M9.16633 4.375C8.82117 4.375 8.54133 4.65483 8.54133 5C8.54133 5.34517 8.82117 5.625 9.16633 5.625V4.375ZM3.33301 11.875C2.98783 11.875 2.70801 12.1548 2.70801 12.5C2.70801 12.8452 2.98783 13.125 3.33301 13.125V11.875ZM9.16633 5.625H13.333V4.375H9.16633V5.625ZM13.333 13.125C14.4782 13.125 15.4736 12.5323 16.1656 11.7209C16.8567 10.9105 17.2913 9.83192 17.2913 8.75H16.0413C16.0413 9.50908 15.7298 10.3054 15.2144 10.9098C14.7 11.5131 14.0288 11.875 13.333 11.875V13.125ZM13.333 5.625C14.0287 5.625 14.7 5.98689 15.2144 6.59018C15.7298 7.19457 16.0413 7.99094 16.0413 8.75H17.2913C17.2913 7.66811 16.8567 6.58948 16.1656 5.7791C15.4736 4.96763 14.4781 4.375 13.333 4.375V5.625ZM13.333 11.875H3.33301V13.125H13.333V11.875Z" fill="#414651"/>
</svg>
