<svg width="36" height="36" viewBox="0 0 36 36" fill="none" xmlns="http://www.w3.org/2000/svg">
<path d="M20.9166 18C20.9166 19.6109 19.6108 20.9167 17.9999 20.9167C16.3891 20.9167 15.0833 19.6109 15.0833 18C15.0833 16.3892 16.3891 15.0834 17.9999 15.0834C19.6108 15.0834 20.9166 16.3892 20.9166 18Z" stroke="#414651" stroke-width="1.5"/>
<path d="M16.1433 10.2364L15.4999 12.1666L14.2 12.9888L12.0732 12.4625C11.7166 12.3743 11.3444 12.5299 11.1567 12.8457L10.0199 14.7582C9.81499 15.1029 9.88461 15.5446 10.1856 15.8095L11.6773 17.1228V18.8771L10.186 20.1904C9.88514 20.4553 9.81557 20.897 10.0204 21.2415L11.1573 23.1542C11.345 23.47 11.7172 23.6256 12.0738 23.5374L14.2006 23.0111L15.432 23.7017L16.0198 25.7317C16.123 26.088 16.4493 26.3333 16.8203 26.3333H19.1801C19.5511 26.3333 19.8774 26.088 19.9806 25.7317L20.5684 23.7017L21.7991 23.0111L23.926 23.5374C24.2826 23.6256 24.6548 23.47 24.8425 23.1542L26.0008 21.2055C26.1959 20.8773 26.143 20.4585 25.8725 20.1891L24.3673 18.6905L24.3679 17.3094L25.8731 15.8108C26.1436 15.5414 26.1966 15.1226 26.0015 14.7945L24.8431 12.8457C24.6554 12.5299 24.2831 12.3743 23.9266 12.4625L21.7997 12.9888L20.4999 12.1666L19.8565 10.2364C19.7431 9.89615 19.4246 9.66663 19.0659 9.66663H16.9339C16.5751 9.66663 16.2567 9.89615 16.1433 10.2364Z" stroke="#414651" stroke-width="1.5" stroke-linecap="round" stroke-linejoin="round"/>
</svg>
