<svg width="20" height="20" viewBox="0 0 20 20" fill="none" xmlns="http://www.w3.org/2000/svg">
    <path d="M9.16667 18.3334H4.16667C3.24619 18.3334 2.5 17.5872 2.5 16.6667V3.33341C2.5 2.41294 3.24619 1.66675 4.16667 1.66675H14.1667C15.0872 1.66675 15.8333 2.41294 15.8333 3.33341V9.16675" stroke="#A4A7AE" stroke-width="1.5" stroke-linecap="round" stroke-linejoin="round"/>
    <path d="M6.25 5.83325H12.0833M6.25 9.16659H8.75" stroke="#A4A7AE" stroke-width="1.5" stroke-linecap="round" stroke-linejoin="round"/>
    <path d="M17.4999 18.3334L15.8123 16.6458M15.8123 16.6458C16.3401 16.118 16.6666 15.3888 16.6666 14.5834C16.6666 12.9726 15.3608 11.6667 13.7499 11.6667C12.1391 11.6667 10.8333 12.9726 10.8333 14.5834C10.8333 16.1942 12.1391 17.5001 13.7499 17.5001C14.5553 17.5001 15.2845 17.1736 15.8123 16.6458Z" stroke="#A4A7AE" stroke-width="1.5" stroke-linecap="round" stroke-linejoin="round"/>
</svg>
