<svg width="20" height="20" viewBox="0 0 20 20" fill="none" xmlns="http://www.w3.org/2000/svg">
    <path d="M10.8552 18.2901C10.5741 18.3187 10.2887 18.3334 10.0001 18.3334C5.39771 18.3334 1.66675 14.6024 1.66675 10.0001C1.66675 5.39771 5.39771 1.66675 10.0001 1.66675C14.6024 1.66675 18.3334 5.39771 18.3334 10.0001C18.3334 10.5708 18.276 11.1282 18.1667 11.6667" stroke="#A4A7AE" stroke-width="1.5" stroke-linecap="round" stroke-linejoin="round"/>
    <path d="M10 6.66675V10.0001L11.25 11.2501" stroke="#A4A7AE" stroke-width="1.5" stroke-linecap="round" stroke-linejoin="round"/>
    <path d="M18.2919 15.3392C18.347 15.3714 18.3471 15.4519 18.292 15.4843L13.4577 18.3218C13.3922 18.3602 13.3144 18.2968 13.3373 18.2238L14.2217 15.4117L13.3374 12.6096C13.3144 12.5367 13.3921 12.4733 13.4576 12.5115L18.2919 15.3392Z" stroke="#A4A7AE" stroke-width="1.5" stroke-linejoin="round"/>
</svg>
